<svg width="19" height="22" viewBox="0 0 19 22" fill="none" xmlns="http://www.w3.org/2000/svg">
<path d="M1.05912 15.5036C0.840849 15.6498 0.74287 15.9214 0.81809 16.1736C0.893916 16.4279 1.12774 16.6021 1.39307 16.6021H16.0596C16.3249 16.6021 16.5588 16.4279 16.6346 16.1736C16.7098 15.9214 16.6118 15.6498 16.3936 15.5036L16.3863 15.4984C16.3769 15.4916 16.3593 15.4783 16.3346 15.4581C16.2851 15.4176 16.207 15.3491 16.1095 15.248C15.9147 15.0461 15.6409 14.7128 15.3619 14.2105C14.8057 13.2092 14.2152 11.5111 14.2152 8.80085C14.2152 7.3649 13.6342 5.99002 12.6037 4.97804C11.5735 3.96642 10.1786 3.4 8.72634 3.4C7.27408 3.4 5.87917 3.96642 4.84901 4.97804C3.81848 5.99002 3.23749 7.3649 3.23749 8.80085C3.23749 11.5111 2.64697 13.2092 2.09076 14.2105C1.81175 14.7128 1.53792 15.0461 1.3432 15.248C1.24568 15.3491 1.1676 15.4176 1.11812 15.4581C1.09337 15.4783 1.07575 15.4916 1.06642 15.4984L1.05912 15.5036Z" stroke="#090F47" stroke-opacity="0.45" stroke-width="1.2" stroke-linecap="round" stroke-linejoin="round"/>
<mask id="path-2-outside-1_1692_50" maskUnits="userSpaceOnUse" x="5.31665" y="17.2027" width="7" height="4" fill="black">
<rect fill="white" x="5.31665" y="17.2027" width="7" height="4"/>
<path d="M10.1359 19.2027C9.99263 19.4452 9.78702 19.6465 9.53963 19.7864C9.29224 19.9264 9.01176 20 8.72627 20C8.44078 20 8.16029 19.9264 7.91291 19.7864C7.66552 19.6465 7.4599 19.4452 7.31665 19.2027"/>
</mask>
<path d="M11.1691 19.813C11.5062 19.2424 11.3168 18.5066 10.7462 18.1695C10.1756 17.8324 9.43976 18.0218 9.10269 18.5924L11.1691 19.813ZM8.34985 18.5924C8.01278 18.0218 7.27694 17.8324 6.70632 18.1695C6.1357 18.5066 5.94638 19.2424 6.28345 19.813L8.34985 18.5924ZM9.10269 18.5924C9.06735 18.6522 9.01503 18.7045 8.94884 18.7419L10.1304 20.8309C10.559 20.5885 10.9179 20.2382 11.1691 19.813L9.10269 18.5924ZM8.94884 18.7419C8.88252 18.7794 8.80569 18.8 8.72627 18.8V21.2C9.21783 21.2 9.70197 21.0733 10.1304 20.8309L8.94884 18.7419ZM8.72627 18.8C8.64685 18.8 8.57002 18.7794 8.50369 18.7419L7.32212 20.8309C7.75057 21.0733 8.2347 21.2 8.72627 21.2V18.8ZM8.50369 18.7419C8.4375 18.7045 8.38518 18.6522 8.34985 18.5924L6.28345 19.813C6.53462 20.2382 6.89353 20.5885 7.32212 20.8309L8.50369 18.7419Z" fill="#090F47" fill-opacity="0.45" mask="url(#path-2-outside-1_1692_50)"/>
<path d="M13.613 9.5C16.1302 9.5 18.1863 7.4938 18.1863 5C18.1863 2.5062 16.1302 0.5 13.613 0.5C11.0958 0.5 9.03967 2.5062 9.03967 5C9.03967 7.4938 11.0958 9.5 13.613 9.5Z" fill="#FF0000" stroke="white"/>
</svg>
