<svg width="18" height="20" viewBox="0 0 18 20" fill="none" xmlns="http://www.w3.org/2000/svg">
<path d="M4.58632 1.4C4.39931 1.4 4.223 1.4872 4.10949 1.63582L1.6655 4.83582C1.58561 4.94042 1.54233 5.06838 1.54233 5.2V16.4C1.54233 16.987 1.77991 17.5478 2.19916 17.9595C2.61804 18.3708 3.18389 18.6 3.77166 18.6H15.1769C15.7647 18.6 16.3306 18.3708 16.7494 17.9595C17.1687 17.5478 17.4063 16.987 17.4063 16.4V5.2C17.4063 5.06838 17.363 4.94042 17.2831 4.83582L14.8391 1.63582C14.7256 1.4872 14.5493 1.4 14.3623 1.4H4.58632Z" stroke="#090F47" stroke-opacity="0.45" stroke-width="1.2" stroke-linecap="round" stroke-linejoin="round"/>
<path d="M2.14233 5.20001H16.8063" stroke="#090F47" stroke-opacity="0.45" stroke-width="1.2" stroke-linecap="round" stroke-linejoin="round"/>
<mask id="path-3-outside-1_1692_46" maskUnits="userSpaceOnUse" x="4.2157" y="6.40002" width="10" height="7" fill="black">
<rect fill="white" x="4.2157" y="6.40002" width="10" height="7"/>
<path d="M12.733 8.40002C12.733 9.24872 12.3897 10.0626 11.7786 10.6628C11.1675 11.2629 10.3386 11.6 9.47435 11.6C8.6101 11.6 7.78125 11.2629 7.17014 10.6628C6.55902 10.0626 6.2157 9.24872 6.2157 8.40002"/>
</mask>
<path d="M13.933 8.40002C13.933 7.73728 13.3957 7.20002 12.733 7.20002C12.0703 7.20002 11.533 7.73728 11.533 8.40002L13.933 8.40002ZM9.47435 11.6V12.8V11.6ZM7.4157 8.40002C7.4157 7.73728 6.87844 7.20002 6.2157 7.20002C5.55296 7.20002 5.0157 7.73728 5.0157 8.40002L7.4157 8.40002ZM11.533 8.40002C11.533 8.92335 11.3215 9.42975 10.9378 9.80657L12.6194 11.519C13.4579 10.6956 13.933 9.57408 13.933 8.40002L11.533 8.40002ZM10.9378 9.80657C10.5533 10.1841 10.0273 10.4 9.47435 10.4V12.8C10.6499 12.8 11.7816 12.3417 12.6194 11.519L10.9378 9.80657ZM9.47435 10.4C8.9214 10.4 8.39539 10.1841 8.01092 9.80657L6.32935 11.519C7.16711 12.3417 8.29881 12.8 9.47435 12.8V10.4ZM8.01092 9.80657C7.6272 9.42975 7.4157 8.92335 7.4157 8.40002L5.0157 8.40002C5.0157 9.57408 5.49084 10.6956 6.32935 11.519L8.01092 9.80657Z" fill="#090F47" fill-opacity="0.45" mask="url(#path-3-outside-1_1692_46)"/>
</svg>
