<svg width="296" height="268" viewBox="0 0 296 268" fill="none" xmlns="http://www.w3.org/2000/svg">
<ellipse cx="138.232" cy="133.548" rx="138.232" ry="133.548" fill="#EFF7FF"/>
<path d="M65.1677 47.3656C65.1677 43.3342 68.4358 40.0661 72.4672 40.0661H91.3162C94.6299 40.0661 97.3162 42.7524 97.3162 46.0661V54.6651H72.4672C68.4358 54.6651 65.1677 51.397 65.1677 47.3656Z" fill="#F4F8FB"/>
<path d="M292.621 86.4241H106.289L125.711 188.847C126.069 190.735 127.72 192.102 129.641 192.102H269.899C273.788 192.102 277.114 189.304 277.78 185.472L294.592 88.7667C294.804 87.5435 293.863 86.4241 292.621 86.4241Z" fill="white"/>
<path d="M118.401 86.4251H293.805C294.428 86.4251 294.9 86.9883 294.79 87.6013L276.976 187.126C276.293 190.94 272.976 193.716 269.101 193.716H129.692C126.299 193.716 123.394 191.283 122.8 187.943L99.2144 55.3662M99.2144 55.3662L97.0062 42.9539C96.5817 40.5678 94.5071 38.8297 92.0835 38.8297H68.9611C66.7519 38.8297 64.9611 40.6206 64.9611 42.8297V51.3662C64.9611 53.5754 66.7519 55.3662 68.9611 55.3662H99.2144Z" stroke="#A7B4CF"/>
<line x1="124.327" y1="124.646" x2="275.297" y2="124.646" stroke="#A7B4CF" stroke-linecap="round" stroke-linejoin="round"/>
<line x1="128.084" y1="156.512" x2="269.45" y2="156.512" stroke="#A7B4CF" stroke-linecap="round" stroke-linejoin="round"/>
<line x1="0.5" y1="-0.5" x2="79.8423" y2="-0.5" transform="matrix(0.10913 0.994027 -0.994791 0.101938 151.8 99.3323)" stroke="#A7B4CF" stroke-linecap="round" stroke-linejoin="round"/>
<line x1="0.5" y1="-0.5" x2="79.8423" y2="-0.5" transform="matrix(-0.10913 0.994027 0.994791 0.101938 250.33 99.3323)" stroke="#A7B4CF" stroke-linecap="round" stroke-linejoin="round"/>
<path d="M145.538 218.32L151.025 210.369C151.772 209.287 153.003 208.64 154.317 208.64H265.36" stroke="#A7B4CF"/>
<line x1="200.313" y1="99.8323" x2="200.313" y2="178.695" stroke="#A7B4CF" stroke-linecap="round" stroke-linejoin="round"/>
<path d="M145.039 236.068C145.039 242.681 139.485 248.071 132.597 248.071C125.709 248.071 120.155 242.681 120.155 236.068C120.155 229.455 125.709 224.064 132.597 224.064C139.485 224.064 145.039 229.455 145.039 236.068Z" fill="#DCE0EB" stroke="#A7B4CF"/>
<path d="M264.859 236.068C264.859 242.681 259.305 248.071 252.417 248.071C245.53 248.071 239.975 242.681 239.975 236.068C239.975 229.455 245.53 224.064 252.417 224.064C259.305 224.064 264.859 229.455 264.859 236.068Z" fill="#DCE0EB" stroke="#A7B4CF"/>
<line x1="64.9598" y1="135.133" x2="92.0982" y2="135.133" stroke="#1987FB"/>
<line x1="74.1456" y1="178.694" x2="101.284" y2="178.694" stroke="#1987FB"/>
<line x1="81.2424" y1="156.512" x2="97.108" y2="156.512" stroke="#1987FB"/>
</svg>
