<svg width="19" height="20" viewBox="0 0 19 20" fill="none" xmlns="http://www.w3.org/2000/svg">
<path d="M1.39302 6.80529C1.14532 6.99447 1 7.28832 1 7.6V16.4C1 17.0955 1.28151 17.7587 1.77656 18.2449L2.47722 17.5314L1.77656 18.2449C2.27099 18.7304 2.93779 19 3.62933 19H15.0346C15.7262 19 16.3929 18.7304 16.8874 18.2449C17.3824 17.7587 17.6639 17.0955 17.6639 16.4V7.6C17.6639 7.28832 17.5186 6.99447 17.2709 6.80529L9.93896 1.20529C9.58058 0.931571 9.08336 0.931571 8.72499 1.20529L1.39302 6.80529Z" stroke="#090F47" stroke-opacity="0.45" stroke-width="2" stroke-linecap="round" stroke-linejoin="round"/>
<mask id="path-2-outside-1_1692_43" maskUnits="userSpaceOnUse" x="4.88806" y="8" width="9" height="12" fill="black">
<rect fill="white" x="4.88806" y="8" width="9" height="12"/>
<path d="M6.88806 18V10H11.776V18"/>
</mask>
<path d="M4.88806 18C4.88806 19.1046 5.78349 20 6.88806 20C7.99263 20 8.88806 19.1046 8.88806 18H4.88806ZM6.88806 10V8C5.78349 8 4.88806 8.89543 4.88806 10H6.88806ZM11.776 10H13.776C13.776 8.89543 12.8806 8 11.776 8V10ZM9.77604 18C9.77604 19.1046 10.6715 20 11.776 20C12.8806 20 13.776 19.1046 13.776 18H9.77604ZM8.88806 18V10H4.88806V18H8.88806ZM6.88806 12H11.776V8H6.88806V12ZM9.77604 10V18H13.776V10H9.77604Z" fill="#090F47" fill-opacity="0.45" mask="url(#path-2-outside-1_1692_43)"/>
</svg>
