<svg width="289" height="126" viewBox="0 0 289 126" fill="none" xmlns="http://www.w3.org/2000/svg">
<g filter="url(#filter0_d_1_1818)">
<circle cx="144" cy="38" r="37" fill="white"/>
</g>
<path d="M78.1615 116.336C77.0789 116.336 76.1549 116.126 75.3895 115.706C74.6335 115.286 74.0175 114.712 73.5415 113.984C73.0655 113.256 72.7155 112.43 72.4915 111.506C72.2769 110.573 72.1695 109.597 72.1695 108.58C72.1695 107.049 72.3655 105.547 72.7575 104.072C73.1589 102.588 73.7515 101.244 74.5355 100.04C75.3289 98.8267 76.3135 97.8607 77.4895 97.142C78.6749 96.4233 80.0469 96.064 81.6055 96.064C82.5295 96.064 83.3042 96.1993 83.9295 96.47C84.5642 96.7313 85.0822 97.0673 85.4835 97.478C85.8942 97.8887 86.2255 98.3133 86.4775 98.752L85.4695 99.34C85.1522 98.7333 84.6809 98.206 84.0555 97.758C83.4302 97.3007 82.5762 97.072 81.4935 97.072C80.3455 97.072 79.3235 97.31 78.4275 97.786C77.5409 98.2527 76.7709 98.8873 76.1175 99.69C75.4642 100.493 74.9275 101.389 74.5075 102.378C74.0875 103.367 73.7749 104.389 73.5695 105.444C73.3642 106.499 73.2615 107.507 73.2615 108.468C73.2615 109.691 73.4249 110.825 73.7515 111.87C74.0875 112.906 74.6195 113.741 75.3475 114.376C76.0755 115.011 77.0322 115.328 78.2175 115.328C79.7855 115.328 81.1295 114.763 82.2495 113.634C83.3789 112.505 84.1349 110.783 84.5175 108.468L84.5735 108.132H80.5975L80.7375 107.152H85.8055L85.6375 108.132C85.3855 109.588 85.0215 110.839 84.5455 111.884C84.0695 112.92 83.5002 113.765 82.8375 114.418C82.1842 115.071 81.4609 115.557 80.6675 115.874C79.8742 116.182 79.0389 116.336 78.1615 116.336ZM89.8833 116L93.3273 96.4H97.5273C98.8713 96.4 100.001 96.6193 100.915 97.058C101.839 97.4873 102.581 98.0707 103.141 98.808C103.701 99.536 104.103 100.367 104.345 101.3C104.597 102.224 104.723 103.185 104.723 104.184C104.723 105.407 104.579 106.597 104.289 107.754C104.009 108.902 103.58 109.975 103.001 110.974C102.432 111.973 101.718 112.85 100.859 113.606C100.001 114.353 98.9973 114.941 97.8493 115.37C96.7013 115.79 95.4086 116 93.9713 116H89.8833ZM91.1153 114.992H94.1673C95.6419 114.992 96.9579 114.712 98.1153 114.152C99.2819 113.592 100.271 112.822 101.083 111.842C101.895 110.853 102.511 109.705 102.931 108.398C103.361 107.082 103.575 105.677 103.575 104.184C103.575 103.008 103.384 101.907 103.001 100.88C102.619 99.844 101.97 99.0087 101.055 98.374C100.15 97.73 98.9086 97.408 97.3313 97.408H94.1673L91.1153 114.992ZM114.83 116.336C113.747 116.336 112.823 116.126 112.058 115.706C111.302 115.286 110.686 114.712 110.21 113.984C109.734 113.256 109.384 112.43 109.16 111.506C108.945 110.573 108.838 109.597 108.838 108.58C108.838 107.049 109.034 105.547 109.426 104.072C109.827 102.588 110.42 101.244 111.204 100.04C111.997 98.8267 112.982 97.8607 114.158 97.142C115.343 96.4233 116.715 96.064 118.274 96.064C119.198 96.064 119.972 96.1993 120.598 96.47C121.232 96.7313 121.75 97.0673 122.152 97.478C122.562 97.8887 122.894 98.3133 123.146 98.752L122.138 99.34C121.82 98.7333 121.349 98.206 120.724 97.758C120.098 97.3007 119.244 97.072 118.162 97.072C117.014 97.072 115.992 97.31 115.096 97.786C114.209 98.2527 113.439 98.8873 112.786 99.69C112.132 100.493 111.596 101.389 111.176 102.378C110.756 103.367 110.443 104.389 110.238 105.444C110.032 106.499 109.93 107.507 109.93 108.468C109.93 109.691 110.093 110.825 110.42 111.87C110.756 112.906 111.288 113.741 112.016 114.376C112.744 115.011 113.7 115.328 114.886 115.328C116.454 115.328 117.798 114.763 118.918 113.634C120.047 112.505 120.803 110.783 121.186 108.468L121.242 108.132H117.266L117.406 107.152H122.474L122.306 108.132C122.054 109.588 121.69 110.839 121.214 111.884C120.738 112.92 120.168 113.765 119.506 114.418C118.852 115.071 118.129 115.557 117.336 115.874C116.542 116.182 115.707 116.336 114.83 116.336ZM140.628 116.336L137.156 101.356C137.072 101.02 136.992 100.684 136.918 100.348C136.843 100.012 136.764 99.648 136.68 99.256C136.642 99.536 136.586 99.8813 136.512 100.292C136.437 100.693 136.372 101.048 136.316 101.356L133.74 116H132.704L136.148 96.4H137.072L140.488 111.296C140.572 111.66 140.66 112.052 140.754 112.472C140.847 112.883 140.936 113.293 141.02 113.704C141.244 113.284 141.472 112.873 141.706 112.472C141.939 112.061 142.168 111.669 142.392 111.296L151.016 96.4H151.996L148.552 116H147.516L150.092 101.356C150.148 101.02 150.204 100.684 150.26 100.348C150.325 100.003 150.39 99.6573 150.456 99.312C150.26 99.6573 150.064 100.003 149.868 100.348C149.672 100.684 149.476 101.02 149.28 101.356L140.628 116.336ZM158.868 116.336C157.888 116.336 157.062 116.117 156.39 115.678C155.727 115.23 155.223 114.586 154.878 113.746C154.532 112.897 154.36 111.865 154.36 110.652C154.36 109.233 154.537 107.955 154.892 106.816C155.256 105.677 155.755 104.702 156.39 103.89C157.024 103.069 157.762 102.443 158.602 102.014C159.442 101.575 160.342 101.356 161.304 101.356C162.106 101.356 162.83 101.519 163.474 101.846C164.127 102.173 164.64 102.691 165.014 103.4C165.396 104.109 165.588 105.043 165.588 106.2C165.588 106.573 165.555 106.993 165.49 107.46C165.434 107.917 165.336 108.477 165.196 109.14H155.536C155.396 110.363 155.41 111.441 155.578 112.374C155.755 113.298 156.128 114.021 156.698 114.544C157.267 115.067 158.074 115.328 159.12 115.328C159.652 115.328 160.212 115.225 160.8 115.02C161.388 114.805 161.966 114.488 162.536 114.068L163.068 114.852C162.498 115.281 161.868 115.636 161.178 115.916C160.496 116.196 159.726 116.336 158.868 116.336ZM155.676 108.216H164.328C164.496 107.143 164.528 106.158 164.426 105.262C164.323 104.357 164.029 103.633 163.544 103.092C163.058 102.551 162.321 102.28 161.332 102.28C160.221 102.28 159.278 102.565 158.504 103.134C157.738 103.694 157.122 104.427 156.656 105.332C156.198 106.237 155.872 107.199 155.676 108.216ZM173.277 116.336C171.896 116.336 170.813 115.809 170.029 114.754C169.245 113.69 168.853 112.22 168.853 110.344C168.853 108.571 169.143 107.012 169.721 105.668C170.3 104.315 171.103 103.26 172.129 102.504C173.165 101.739 174.36 101.356 175.713 101.356C176.553 101.356 177.309 101.585 177.981 102.042C178.653 102.49 179.129 103.092 179.409 103.848L180.753 96.288L181.845 95.784L178.317 116H177.281L177.645 113.956C176.964 114.74 176.255 115.333 175.517 115.734C174.78 116.135 174.033 116.336 173.277 116.336ZM173.277 115.328C174.117 115.328 174.943 115.067 175.755 114.544C176.577 114.021 177.3 113.293 177.925 112.36L179.157 105.248C178.849 104.352 178.383 103.647 177.757 103.134C177.141 102.621 176.441 102.364 175.657 102.364C174.519 102.364 173.52 102.7 172.661 103.372C171.803 104.035 171.135 104.968 170.659 106.172C170.183 107.367 169.945 108.757 169.945 110.344C169.945 111.865 170.244 113.079 170.841 113.984C171.448 114.88 172.26 115.328 173.277 115.328ZM183.562 116L186.082 101.692H187.09L184.598 116H183.562ZM187.118 98.556C186.922 98.556 186.759 98.4907 186.628 98.36C186.507 98.2293 186.446 98.0613 186.446 97.856C186.446 97.576 186.54 97.3427 186.726 97.156C186.913 96.9693 187.137 96.876 187.398 96.876C187.594 96.876 187.753 96.9413 187.874 97.072C188.005 97.2027 188.07 97.38 188.07 97.604C188.07 97.8653 187.982 98.0893 187.804 98.276C187.627 98.4627 187.398 98.556 187.118 98.556ZM194.329 116.336C192.957 116.336 191.884 115.841 191.109 114.852C190.344 113.863 189.961 112.481 189.961 110.708C189.961 108.907 190.237 107.301 190.787 105.892C191.347 104.483 192.113 103.377 193.083 102.574C194.063 101.762 195.179 101.356 196.429 101.356C197.437 101.356 198.287 101.641 198.977 102.21C199.677 102.77 200.069 103.493 200.153 104.38L199.201 104.744C199.08 103.988 198.772 103.405 198.277 102.994C197.783 102.574 197.157 102.364 196.401 102.364C195.365 102.364 194.446 102.723 193.643 103.442C192.841 104.161 192.206 105.15 191.739 106.41C191.282 107.661 191.053 109.093 191.053 110.708C191.053 112.192 191.338 113.335 191.907 114.138C192.477 114.931 193.284 115.328 194.329 115.328C195.104 115.328 195.809 115.095 196.443 114.628C197.087 114.161 197.596 113.508 197.969 112.668L198.921 113.06C198.417 114.124 197.769 114.936 196.975 115.496C196.191 116.056 195.309 116.336 194.329 116.336ZM205.847 116.336C204.69 116.336 203.775 115.981 203.103 115.272C202.431 114.563 202.095 113.592 202.095 112.36C202.095 111.352 202.338 110.456 202.823 109.672C203.309 108.879 203.971 108.258 204.811 107.81C205.661 107.353 206.622 107.124 207.695 107.124C208.442 107.124 209.133 107.245 209.767 107.488C210.402 107.721 211.018 108.085 211.615 108.58L211.951 106.76C212.25 105.192 212.199 104.053 211.797 103.344C211.396 102.635 210.607 102.28 209.431 102.28C208.806 102.28 208.106 102.401 207.331 102.644C206.566 102.887 205.763 103.241 204.923 103.708L204.727 102.812C205.651 102.308 206.501 101.939 207.275 101.706C208.05 101.473 208.778 101.356 209.459 101.356C210.449 101.356 211.237 101.552 211.825 101.944C212.413 102.327 212.801 102.901 212.987 103.666C213.183 104.431 213.183 105.388 212.987 106.536L211.335 116H210.327L210.691 113.9C209.963 114.693 209.189 115.3 208.367 115.72C207.555 116.131 206.715 116.336 205.847 116.336ZM205.903 115.412C206.762 115.412 207.602 115.179 208.423 114.712C209.245 114.245 210.075 113.536 210.915 112.584L211.475 109.476C210.878 109.009 210.253 108.659 209.599 108.426C208.955 108.193 208.302 108.076 207.639 108.076C206.799 108.076 206.048 108.267 205.385 108.65C204.723 109.023 204.2 109.532 203.817 110.176C203.435 110.82 203.243 111.548 203.243 112.36C203.243 113.293 203.481 114.035 203.957 114.586C204.443 115.137 205.091 115.412 205.903 115.412ZM216.209 116L219.681 96.288L220.773 95.784L217.245 116H216.209Z" fill="white"/>
<defs>
<filter id="filter0_d_1_1818" x="95" y="0" width="98" height="98" filterUnits="userSpaceOnUse" color-interpolation-filters="sRGB">
<feFlood flood-opacity="0" result="BackgroundImageFix"/>
<feColorMatrix in="SourceAlpha" type="matrix" values="0 0 0 0 0 0 0 0 0 0 0 0 0 0 0 0 0 0 127 0" result="hardAlpha"/>
<feOffset dy="11"/>
<feGaussianBlur stdDeviation="6"/>
<feColorMatrix type="matrix" values="0 0 0 0 0.0352941 0 0 0 0 0.0588235 0 0 0 0 0.278431 0 0 0 0.1 0"/>
<feBlend mode="normal" in2="BackgroundImageFix" result="effect1_dropShadow_1_1818"/>
<feBlend mode="normal" in="SourceGraphic" in2="effect1_dropShadow_1_1818" result="shape"/>
</filter>
</defs>
</svg>
