<svg width="18" height="20" viewBox="0 0 18 20" fill="none" xmlns="http://www.w3.org/2000/svg">
<mask id="path-1-outside-1_1692_55" maskUnits="userSpaceOnUse" x="-0.48291" y="10.6667" width="18" height="9" fill="black">
<rect fill="white" x="-0.48291" y="10.6667" width="18" height="9"/>
<path d="M16 18V16.2222C16 15.2793 15.6185 14.3749 14.9395 13.7081C14.2605 13.0413 13.3395 12.6667 12.3793 12.6667H5.13782C4.17754 12.6667 3.25659 13.0413 2.57758 13.7081C1.89856 14.3749 1.51709 15.2793 1.51709 16.2222V18"/>
</mask>
<path d="M14.8 18C14.8 18.6628 15.3373 19.2 16 19.2C16.6627 19.2 17.2 18.6628 17.2 18H14.8ZM12.3793 12.6667V11.4667V12.6667ZM5.13782 12.6667V11.4667V12.6667ZM1.51709 16.2222H0.31709H1.51709ZM0.31709 18C0.31709 18.6628 0.854348 19.2 1.51709 19.2C2.17983 19.2 2.71709 18.6628 2.71709 18H0.31709ZM17.2 18V16.2222H14.8V18H17.2ZM17.2 16.2222C17.2 14.9539 16.6867 13.742 15.7803 12.8519L14.0987 14.5643C14.5504 15.0078 14.8 15.6046 14.8 16.2222H17.2ZM15.7803 12.8519C14.8746 11.9625 13.6508 11.4667 12.3793 11.4667L12.3793 13.8667C13.0282 13.8667 13.6463 14.1201 14.0987 14.5643L15.7803 12.8519ZM12.3793 11.4667H5.13782V13.8667H12.3793V11.4667ZM5.13782 11.4667C3.86624 11.4667 2.64245 11.9625 1.73679 12.8519L3.41836 14.5643C3.87073 14.1201 4.48884 13.8667 5.13782 13.8667V11.4667ZM1.73679 12.8519C0.830382 13.742 0.31709 14.9539 0.31709 16.2222H2.71709C2.71709 15.6046 2.96673 15.0078 3.41836 14.5643L1.73679 12.8519ZM0.31709 16.2222V18H2.71709V16.2222H0.31709Z" fill="#4157FF" fill-opacity="0.45" mask="url(#path-1-outside-1_1692_55)"/>
<path d="M8.75854 9.71111C11.0793 9.71111 12.9793 7.86083 12.9793 5.55556C12.9793 3.25028 11.0793 1.4 8.75854 1.4C6.43782 1.4 4.53782 3.25028 4.53782 5.55556C4.53782 7.86083 6.43782 9.71111 8.75854 9.71111Z" stroke="#4157FF" stroke-opacity="0.45" stroke-width="1.2" stroke-linecap="round" stroke-linejoin="round"/>
</svg>
